<svg width="393" height="1254" viewBox="0 0 393 1254" fill="none" xmlns="http://www.w3.org/2000/svg">
<g clip-path="url(#clip0_34_458)">
<rect width="393" height="1254" fill="white"/>
<ellipse cx="406.905" cy="356.439" rx="59.5031" ry="57.0933" transform="rotate(142.856 406.905 356.439)" fill="url(#paint0_linear_34_458)"/>
<ellipse cx="260.29" cy="1222.42" rx="160.5" ry="154" transform="rotate(-121.624 260.29 1222.42)" fill="url(#paint1_linear_34_458)"/>
<ellipse cx="-23.8385" cy="812.205" rx="80.5502" ry="77.2881" transform="rotate(-5.14898 -23.8385 812.205)" fill="url(#paint2_linear_34_458)"/>
<ellipse cx="455.08" cy="280.811" rx="125.895" ry="120.796" transform="rotate(112.748 455.08 280.811)" fill="url(#paint3_linear_34_458)"/>
<ellipse cx="357.527" cy="697.892" rx="160.5" ry="154" transform="rotate(172.804 357.527 697.892)" fill="url(#paint4_linear_34_458)"/>
<ellipse cx="-0.0748021" cy="954.831" rx="133.41" ry="128.007" transform="rotate(-75.7395 -0.0748021 954.831)" fill="url(#paint5_linear_34_458)"/>
<g filter="url(#filter0_b_34_458)">
<ellipse cx="120.5" cy="105" rx="160.5" ry="154" fill="url(#paint6_linear_34_458)"/>
</g>
</g>
<defs>
<filter id="filter0_b_34_458" x="-44" y="-53" width="329" height="316" filterUnits="userSpaceOnUse" color-interpolation-filters="sRGB">
<feFlood flood-opacity="0" result="BackgroundImageFix"/>
<feGaussianBlur in="BackgroundImageFix" stdDeviation="2"/>
<feComposite in2="SourceAlpha" operator="in" result="effect1_backgroundBlur_34_458"/>
<feBlend mode="normal" in="SourceGraphic" in2="effect1_backgroundBlur_34_458" result="shape"/>
</filter>
<linearGradient id="paint0_linear_34_458" x1="370.202" y1="323.073" x2="444.72" y2="397.591" gradientUnits="userSpaceOnUse">
<stop stop-color="#F6D3FF"/>
<stop offset="1" stop-color="#FDE8FF" stop-opacity="0"/>
</linearGradient>
<linearGradient id="paint1_linear_34_458" x1="161.29" y1="1132.42" x2="362.29" y2="1333.42" gradientUnits="userSpaceOnUse">
<stop stop-color="#F6D3FF"/>
<stop offset="1" stop-color="#FDE8FF" stop-opacity="0"/>
</linearGradient>
<linearGradient id="paint2_linear_34_458" x1="-73.5238" y1="767.037" x2="27.3522" y2="867.913" gradientUnits="userSpaceOnUse">
<stop stop-color="#F6D3FF"/>
<stop offset="1" stop-color="#FDE8FF" stop-opacity="0"/>
</linearGradient>
<linearGradient id="paint3_linear_34_458" x1="377.425" y1="210.215" x2="535.088" y2="367.878" gradientUnits="userSpaceOnUse">
<stop stop-color="#F6D3FF"/>
<stop offset="1" stop-color="#FDE8FF" stop-opacity="0"/>
</linearGradient>
<linearGradient id="paint4_linear_34_458" x1="258.527" y1="607.892" x2="459.527" y2="808.892" gradientUnits="userSpaceOnUse">
<stop stop-color="#F6D3FF"/>
<stop offset="1" stop-color="#FDE8FF" stop-opacity="0"/>
</linearGradient>
<linearGradient id="paint5_linear_34_458" x1="-82.3649" y1="880.022" x2="84.7089" y2="1047.1" gradientUnits="userSpaceOnUse">
<stop stop-color="#F6D3FF"/>
<stop offset="1" stop-color="#FDE8FF" stop-opacity="0"/>
</linearGradient>
<linearGradient id="paint6_linear_34_458" x1="21.5" y1="15" x2="222.5" y2="216" gradientUnits="userSpaceOnUse">
<stop stop-color="#F6D3FF"/>
<stop offset="1" stop-color="#FDE8FF" stop-opacity="0"/>
</linearGradient>
<clipPath id="clip0_34_458">
<rect width="393" height="1254" fill="white"/>
</clipPath>
</defs>
</svg>
